<svg width="20" height="21" viewBox="0 0 20 21" fill="none" xmlns="http://www.w3.org/2000/svg">
<g clip-path="url(#clip0_5:215)">
<path d="M17.0312 0.4375H10.7617V10.9785L13.5684 8.21289C13.8672 7.91992 14.3477 7.91992 14.6465 8.21875C14.9395 8.51758 14.9395 8.99805 14.6406 9.29688L10.5391 13.3398C10.3926 13.4805 10.1992 13.5566 10.0059 13.5566C9.90625 13.5566 9.80664 13.5391 9.71289 13.498C9.625 13.4629 9.54297 13.4043 9.47266 13.3398L5.37109 9.29688C5.07227 9.00391 5.06641 8.51758 5.36523 8.21875C5.6582 7.91992 6.14453 7.91406 6.44336 8.21289L9.25 10.9785V0.4375H2.96875C1.67969 0.4375 0.625 1.49219 0.625 2.78125V16.8438C0.625 18.1328 1.67969 19.1875 2.96875 19.1875H17.0312C18.3203 19.1875 19.375 18.1328 19.375 16.8438V2.78125C19.375 1.49219 18.3203 0.4375 17.0312 0.4375ZM10.7617 -4.42578C10.7617 -4.84766 10.4219 -5.1875 10 -5.1875C9.57812 -5.1875 9.23828 -4.84766 9.23828 -4.42578V0.4375H10.7617V-4.42578Z" fill="#229BD8"/>
</g>
<defs>
<clipPath id="clip0_5:215">
<rect width="20" height="21" fill="white"/>
</clipPath>
</defs>
</svg>
