<svg width="30" height="30" viewBox="0 0 30 30" fill="none" xmlns="http://www.w3.org/2000/svg">
<path d="M5.625 7.27734C5.625 6.87305 5.92969 6.5625 6.33984 6.5625H10.3125V3.75H6.39844C4.43555 3.75 2.8125 5.31445 2.8125 7.27734V11.25H5.625V7.27734ZM23.6484 3.75H19.6875V6.5625H23.625C24.0293 6.5625 24.375 6.86719 24.375 7.27734V11.25H27.1875V7.27734C27.1875 5.31445 25.6055 3.75 23.6484 3.75ZM24.375 22.6641C24.375 23.0684 24.0703 23.3789 23.6602 23.3789H19.6875V26.25H23.6602C25.623 26.25 27.1875 24.627 27.1875 22.6641V18.75H24.375V22.6641ZM6.33984 23.3789C5.93555 23.3789 5.625 23.0742 5.625 22.6641V18.75H2.8125V22.6641C2.8125 24.627 4.43555 26.25 6.39844 26.25H10.3125V23.3789H6.33984Z" fill="white"/>
</svg>
