<svg width="20" height="20" viewBox="0 0 20 20" fill="none" xmlns="http://www.w3.org/2000/svg">
<path d="M5.3125 8.4375C4.45305 8.4375 3.75 9.14055 3.75 10C3.75 10.8595 4.45305 11.5625 5.3125 11.5625C6.17195 11.5625 6.875 10.8595 6.875 10C6.875 9.14055 6.17195 8.4375 5.3125 8.4375ZM14.6875 8.4375C13.828 8.4375 13.125 9.14055 13.125 10C13.125 10.8595 13.828 11.5625 14.6875 11.5625C15.547 11.5625 16.25 10.8595 16.25 10C16.25 9.14055 15.547 8.4375 14.6875 8.4375ZM10 8.4375C9.14055 8.4375 8.4375 9.14055 8.4375 10C8.4375 10.8595 9.14055 11.5625 10 11.5625C10.8595 11.5625 11.5625 10.8595 11.5625 10C11.5625 9.14055 10.8595 8.4375 10 8.4375Z" fill="#E8E8E8"/>
</svg>
